<?xml version="1.0" encoding="UTF-8" standalone="no"?>
<svg
   xmlns:dc="http://purl.org/dc/elements/1.1/"
   xmlns:cc="http://creativecommons.org/ns#"
   xmlns:rdf="http://www.w3.org/1999/02/22-rdf-syntax-ns#"
   xmlns:svg="http://www.w3.org/2000/svg"
   xmlns="http://www.w3.org/2000/svg"
   xmlns:sodipodi="http://sodipodi.sourceforge.net/DTD/sodipodi-0.dtd"
   xmlns:inkscape="http://www.inkscape.org/namespaces/inkscape"
   version="1.1"
   id="Layer_1"
   x="0px"
   y="0px"
   width="100px"
   height="100px"
   viewBox="0 0 100 100"
   enable-background="new 0 0 100 100"
   xml:space="preserve"
   inkscape:version="0.48.2 r9819"
   sodipodi:docname="down.svg"><metadata
   id="metadata153"><rdf:RDF><cc:Work
       rdf:about=""><dc:format>image/svg+xml</dc:format><dc:type
         rdf:resource="http://purl.org/dc/dcmitype/StillImage" /><dc:title /></cc:Work></rdf:RDF></metadata><defs
   id="defs151" /><sodipodi:namedview
   pagecolor="#ffffff"
   bordercolor="#666666"
   borderopacity="1"
   objecttolerance="10"
   gridtolerance="10"
   guidetolerance="10"
   inkscape:pageopacity="0"
   inkscape:pageshadow="2"
   inkscape:window-width="1330"
   inkscape:window-height="645"
   id="namedview149"
   showgrid="false"
   inkscape:zoom="1"
   inkscape:cx="-163.38183"
   inkscape:cy="-62.487552"
   inkscape:window-x="25"
   inkscape:window-y="25"
   inkscape:window-maximized="0"
   inkscape:current-layer="Layer_1" />






















<path
   d="M-184.162,30.636"
   id="path47" />




<path
   d="M50.219,4.716c-26.004,0-47.084,21.08-47.084,47.083c0,26.003,21.08,47.083,47.084,47.083  c26.003,0,47.083-21.08,47.083-47.083C97.302,25.796,76.222,4.716,50.219,4.716z M50.056,92.993  C27.305,92.993,8.861,74.55,8.861,51.8c0-22.75,18.443-41.194,41.194-41.194c22.75,0,41.194,18.443,41.194,41.194  C91.25,74.55,72.806,92.993,50.056,92.993z"
   id="path57" />
<polygon
   points="29.422,45.979 28.328,47.613 49.65,65.358 50.896,64.049 "
   id="polygon59"
   style="fill:#000000;fill-opacity:1;stroke-width:4;stroke-miterlimit:4;stroke-dasharray:none;stroke:#000000;stroke-opacity:1" />
<polygon
   points="49.972,64.886 48.83,63.284 69.621,44.918 70.905,46.191 "
   id="polygon61"
   style="fill:#000000;fill-opacity:1;stroke-width:4;stroke-miterlimit:4;stroke-dasharray:none;stroke:#000000;stroke-opacity:1" />




































<rect
   x="-59.815"
   y="673.615"
   width="3.968"
   height="1.984"
   id="rect135" />






</svg>