<?xml version="1.0" encoding="UTF-8" standalone="no"?>
<svg
   xmlns:dc="http://purl.org/dc/elements/1.1/"
   xmlns:cc="http://creativecommons.org/ns#"
   xmlns:rdf="http://www.w3.org/1999/02/22-rdf-syntax-ns#"
   xmlns:svg="http://www.w3.org/2000/svg"
   xmlns="http://www.w3.org/2000/svg"
   xmlns:sodipodi="http://sodipodi.sourceforge.net/DTD/sodipodi-0.dtd"
   xmlns:inkscape="http://www.inkscape.org/namespaces/inkscape"
   version="1.1"
   id="Layer_1"
   x="0px"
   y="0px"
   width="100.0px"
   height="100px"
   viewBox="0 0 300 300"
   enable-background="new 0 0 300 300"
   xml:space="preserve"
   inkscape:version="0.48.2 r9819"
   sodipodi:docname="settings.svg"><metadata
   id="metadata8"><rdf:RDF><cc:Work
       rdf:about=""><dc:format>image/svg+xml</dc:format><dc:type
         rdf:resource="http://purl.org/dc/dcmitype/StillImage" /><dc:title /></cc:Work></rdf:RDF></metadata><defs
   id="defs6" /><sodipodi:namedview
   pagecolor="#ffffff"
   bordercolor="#666666"
   borderopacity="1"
   objecttolerance="10"
   gridtolerance="10"
   guidetolerance="10"
   inkscape:pageopacity="0"
   inkscape:pageshadow="2"
   inkscape:window-width="708"
   inkscape:window-height="480"
   id="namedview4"
   showgrid="false"
   inkscape:zoom="2.36"
   inkscape:cx="50"
   inkscape:cy="50"
   inkscape:window-x="0"
   inkscape:window-y="0"
   inkscape:window-maximized="0"
   inkscape:current-layer="Layer_1" />
<path
   id="gear-5-icon_1_"
   d="m 167.96199,22.119711 10.90833,30.540135 c 7.31729,2.111779 14.3483,5.022906 20.88113,8.632701 l 29.41777,-13.922459 24.42953,24.318818 -13.98897,29.276224 c 3.62513,6.55367 6.55597,13.50641 8.66087,20.82546 l 30.68584,10.82818 v 34.41678 l -30.68584,10.86092 c -2.10613,7.30329 -5.03695,14.29 -8.66087,20.80971 l 13.98897,29.27622 -24.42953,24.33458 -29.41777,-13.93095 c -6.54743,3.61828 -13.56384,6.52942 -20.88113,8.64241 l -10.90833,30.54013 h -34.54485 l -10.91687,-30.54013 c -7.32581,-2.11299 -14.341,-5.02413 -20.88965,-8.64241 L 72.19407,252.31698 47.771844,227.9824 61.770559,198.70618 c -3.625146,-6.53791 -6.565704,-13.50642 -8.670627,-20.80971 l -30.67,-10.86092 v -34.41678 l 30.67,-10.82818 c 2.104923,-7.31905 5.045481,-14.28877 8.670627,-20.82546 L 47.770627,71.688906 72.192852,47.370088 101.6094,61.292547 c 6.56571,-3.609795 13.56385,-6.519709 20.88966,-8.632701 l 10.91685,-30.540135 h 34.54608 M 150.68042,196.70963 c 25.97533,0 47.04041,-20.97587 47.04041,-46.84122 0,-25.86537 -21.06508,-46.857 -47.04041,-46.857 -25.98386,0 -47.05746,20.99163 -47.05746,46.857 0,25.86535 21.0736,46.84122 47.05746,46.84122 M 182.60266,1.4349492 h -14.64919 -34.54608 -14.65772 l -4.92855,13.7405138 -7.53411,21.116578 c -1.62742,0.631957 -3.25728,1.296665 -4.86155,2.012316 L 81.113196,28.656401 67.866065,22.402332 57.491279,32.731977 33.062962,57.033813 22.689393,67.379226 28.977364,80.571477 38.633456,100.8317 c -0.702859,1.59627 -1.370392,3.19375 -1.99651,4.807 l -21.197845,7.51919 -13.8318298,4.87371 v 14.62114 34.40828 14.63084 l 13.8318298,4.88098 21.197845,7.51071 c 0.626118,1.59506 1.293651,3.2265 1.99651,4.807 l -9.656092,20.24324 -6.289189,13.19832 10.373569,10.33812 24.430754,24.31882 10.374786,10.31388 13.24713,-6.25528 20.312266,-9.62249 c 1.61158,0.68898 3.23291,1.3549 4.86155,1.98806 l 7.53411,21.12508 4.92854,13.73929 h 14.66626 34.54485 14.64919 l 4.92854,-13.73929 7.53412,-21.12508 c 1.63716,-0.63196 3.25849,-1.29788 4.86033,-1.98806 l 20.31348,9.62249 13.24713,6.25528 10.37358,-10.31388 24.43927,-24.31882 10.37358,-10.33812 -6.29773,-13.19832 -9.65487,-20.24324 c 0.70163,-1.59627 1.36917,-3.21073 2.00503,-4.807 l 21.19785,-7.51071 13.83061,-4.88098 V 167.06102 132.65274 118.0316 l -13.83061,-4.87371 -21.19785,-7.51919 c -0.63464,-1.61325 -1.30217,-3.22771 -2.00503,-4.807 l 9.65487,-20.260223 6.29773,-13.191038 -10.37358,-10.345413 -24.4405,-24.303049 -10.37356,-10.329645 -13.24592,6.254069 -20.31348,9.647956 c -1.61037,-0.714438 -3.22317,-1.380359 -4.86033,-2.012316 l -7.53412,-21.116578 -4.93706,-13.7405138 0,0 z M 150.68042,176.02487 c -14.49083,0 -26.26769,-11.72699 -26.26769,-26.14919 0,-14.4222 11.77686,-26.16496 26.26769,-26.16496 14.47501,0 26.25185,11.74396 26.25185,26.16496 0,14.42098 -11.76832,26.14919 -26.25185,26.14919 l 0,0 z"
   style="fill:#ffffff;fill-opacity:1"
   inkscape:connector-curvature="0" />
</svg>