<?xml version="1.0" encoding="UTF-8" standalone="no"?>
<svg
   xmlns:dc="http://purl.org/dc/elements/1.1/"
   xmlns:cc="http://creativecommons.org/ns#"
   xmlns:rdf="http://www.w3.org/1999/02/22-rdf-syntax-ns#"
   xmlns:svg="http://www.w3.org/2000/svg"
   xmlns="http://www.w3.org/2000/svg"
   xmlns:sodipodi="http://sodipodi.sourceforge.net/DTD/sodipodi-0.dtd"
   xmlns:inkscape="http://www.inkscape.org/namespaces/inkscape"
   version="1.1"
   id="Layer_1"
   x="0px"
   y="0px"
   width="100px"
   height="100px"
   viewBox="0 0 100 100"
   enable-background="new 0 0 100 100"
   xml:space="preserve"
   inkscape:version="0.48.2 r9819"
   sodipodi:docname="up.svg"><metadata
   id="metadata153"><rdf:RDF><cc:Work
       rdf:about=""><dc:format>image/svg+xml</dc:format><dc:type
         rdf:resource="http://purl.org/dc/dcmitype/StillImage" /><dc:title></dc:title></cc:Work></rdf:RDF></metadata><defs
   id="defs151" /><sodipodi:namedview
   pagecolor="#ffffff"
   bordercolor="#666666"
   borderopacity="1"
   objecttolerance="10"
   gridtolerance="10"
   guidetolerance="10"
   inkscape:pageopacity="0"
   inkscape:pageshadow="2"
   inkscape:window-width="1330"
   inkscape:window-height="645"
   id="namedview149"
   showgrid="false"
   inkscape:zoom="1.18"
   inkscape:cx="-5.0431367"
   inkscape:cy="20.065501"
   inkscape:window-x="0"
   inkscape:window-y="0"
   inkscape:window-maximized="0"
   inkscape:current-layer="Layer_1" />






















<path
   d="M -184.162,649.67899"
   id="path47"
   inkscape:connector-curvature="0" />




<path
   d="m 50.219,96.10747 c -26.004,0 -47.084,-21.080004 -47.084,-47.083004 0,-26.003 21.08,-47.083 47.084,-47.083 26.003,0 47.083,21.08 47.083,47.083 0,26.003 -21.08,47.083004 -47.083,47.083004 z M 50.056,7.830466 c -22.751,0 -41.195,18.443 -41.195,41.193 0,22.75 18.443,41.194004 41.194,41.194004 22.75,0 41.194,-18.443004 41.194,-41.194004 0.001,-22.75 -18.443,-41.193 -41.193,-41.193 z"
   id="path57"
   inkscape:connector-curvature="0" />
<polygon
   points="28.328,47.613 49.65,65.358 50.896,64.049 29.422,45.979 "
   id="polygon59"
   transform="matrix(1,0,0,-1,0,100.82347)"
   style="stroke-width:4;stroke-miterlimit:4;stroke-dasharray:none;stroke:#000000;stroke-opacity:1" />
<polygon
   points="48.83,63.284 69.621,44.918 70.905,46.191 49.972,64.886 "
   id="polygon61"
   transform="matrix(1,0,0,-1,0,100.82347)"
   style="stroke-width:4;stroke-miterlimit:4;stroke-dasharray:none;stroke:#000000;stroke-opacity:1" />











































</svg>